<svg width="38" height="38" viewBox="0 0 38 38" fill="none" xmlns="http://www.w3.org/2000/svg">
<path d="M32.3024 5.52437C30.5602 3.7661 28.4856 2.37213 26.1993 1.4237C23.9131 0.475274 21.4609 -0.00865515 18.9858 0.00011716C8.61413 0.00011716 0.1615 8.45037 0.152 18.8244C0.152 22.147 1.02125 25.3794 2.66238 28.2412L0 38.0001L9.9845 35.3829C12.7466 36.886 15.8411 37.6739 18.9858 37.6747H18.9953C29.3693 37.6747 37.8195 29.2245 37.829 18.841C37.8314 16.3663 37.3441 13.9157 36.3951 11.6302C35.4462 9.34472 34.0568 7.26959 32.3024 5.52437ZM18.9858 34.4875C16.1809 34.4884 13.4275 33.7337 11.0153 32.3025L10.4452 31.9605L4.522 33.5137L6.10375 27.7354L5.73325 27.1392C4.16529 24.6463 3.33604 21.7599 3.34162 18.8149C3.34162 10.2031 10.3645 3.17787 18.9953 3.17787C21.0514 3.17418 23.0879 3.57752 24.9874 4.36463C26.8869 5.15175 28.6119 6.30707 30.0627 7.76399C31.5187 9.21523 32.6729 10.9404 33.4588 12.8399C34.2447 14.7395 34.6468 16.7758 34.6418 18.8315C34.6323 27.4741 27.6094 34.4875 18.9858 34.4875ZM27.5714 22.7692C27.1035 22.5341 24.7926 21.3965 24.358 21.235C23.9258 21.0806 23.6099 20.9999 23.3011 21.4701C22.9853 21.938 22.0828 23.0044 21.812 23.3107C21.5413 23.6266 21.261 23.6622 20.7907 23.4295C20.3229 23.192 18.8053 22.698 17.0098 21.0901C15.6085 19.8432 14.6704 18.2995 14.3901 17.8316C14.1194 17.3614 14.364 17.1096 14.5991 16.8745C14.8057 16.6655 15.067 16.3235 15.3021 16.0527C15.5396 15.782 15.618 15.5825 15.7724 15.269C15.9267 14.9507 15.8531 14.68 15.7367 14.4449C15.618 14.2097 14.6799 11.8894 14.2832 10.9536C13.9032 10.0297 13.5161 10.158 13.2264 10.1461C12.9556 10.1295 12.6398 10.1295 12.3239 10.1295C12.0853 10.1354 11.8506 10.1906 11.6344 10.2915C11.4182 10.3925 11.2252 10.537 11.0675 10.7161C10.6352 11.1864 9.42638 12.324 9.42638 14.6444C9.42638 16.9647 11.1126 19.1949 11.3501 19.5107C11.5829 19.8266 14.6609 24.5742 19.3847 26.6167C20.501 27.1036 21.3798 27.391 22.0661 27.6095C23.1943 27.9705 24.2131 27.9159 25.0254 27.7995C25.9279 27.6617 27.8065 26.6595 28.2031 25.5599C28.5926 24.4579 28.5926 23.5174 28.4739 23.3202C28.3575 23.1207 28.0416 23.0044 27.5714 22.7692Z" fill="white"/>
</svg>
